<svg width="16" height="16" viewBox="0 0 16 16" fill="#fff" xmlns="http://www.w3.org/2000/svg">
	<path id="Vector"
		d="M9.06127 8.00013L13.7801 3.28108C14.0733 2.98814 14.0733 2.51283 13.7801 2.21989C13.4869 1.9267 13.0122 1.9267 12.719 2.21989L8.00012 6.93894L3.28102 2.21989C2.98785 1.9267 2.51306 1.9267 2.21988 2.21989C1.92671 2.51283 1.92671 2.98814 2.21988 3.28108L6.93898 8.00013L2.21988 12.7192C1.92671 13.0121 1.92671 13.4874 2.21988 13.7804C2.36647 13.9267 2.55859 14 2.75045 14C2.94232 14 3.13444 13.9267 3.28102 13.7801L8.00012 9.06106L12.719 13.7801C12.8656 13.9267 13.0577 14 13.2495 14C13.4414 14 13.6335 13.9267 13.7801 13.7801C14.0733 13.4872 14.0733 13.0119 13.7801 12.7189L9.06127 8.00013Z" />
</svg>
