<svg width="16" height="16" viewBox="0 0 16 16" fill="#fff" xmlns="http://www.w3.org/2000/svg">

	<path id="Combined Shape" fill-rule="evenodd" clip-rule="evenodd"
		d="M6.66669 12.6665C3.35298 12.6665 0.666687 9.98021 0.666687 6.6665C0.666687 3.3528 3.35298 0.666504 6.66669 0.666504C9.9804 0.666504 12.6667 3.3528 12.6667 6.6665C12.6667 9.98021 9.9804 12.6665 6.66669 12.6665ZM6.66667 11.3332C9.244 11.3332 11.3333 9.24383 11.3333 6.6665C11.3333 4.08917 9.244 1.99984 6.66667 1.99984C4.08934 1.99984 2 4.08917 2 6.6665C2 9.24383 4.08934 11.3332 6.66667 11.3332ZM15.1381 15.1379C15.3985 14.8776 15.3985 14.4554 15.1381 14.1951L12.4714 11.5284C12.2111 11.2681 11.789 11.2681 11.5286 11.5284C11.2683 11.7888 11.2683 12.2109 11.5286 12.4712L14.1953 15.1379C14.4556 15.3983 14.8778 15.3983 15.1381 15.1379Z" />
</svg>
