<svg viewBox="0 0 16 16" fill="none" xmlns="http://www.w3.org/2000/svg">

	<path fill="#1F2D3D"
		d="M7.99999 0.999756C6.61552 0.999756 5.26214 1.4103 4.111 2.17947C2.95985 2.94864 2.06264 4.04189 1.53283 5.32097C1.00302 6.60005 0.864394 8.00752 1.13449 9.36539C1.40459 10.7233 2.07127 11.9705 3.05024 12.9495C4.02921 13.9285 5.27649 14.5952 6.63436 14.8653C7.99222 15.1353 9.39969 14.9967 10.6788 14.4669C11.9579 13.9371 13.0511 13.0399 13.8203 11.8887C14.5894 10.7376 15 9.38422 15 7.99975C15 7.0805 14.8189 6.17025 14.4671 5.32097C14.1154 4.47169 13.5997 3.70002 12.9497 3.05001C12.2997 2.4 11.528 1.88438 10.6788 1.5326C9.82949 1.18082 8.91924 0.999756 7.99999 0.999756V0.999756ZM7.99999 13.5998C6.89241 13.5998 5.80971 13.2713 4.88879 12.656C3.96788 12.0406 3.25011 11.166 2.82626 10.1428C2.40241 9.11952 2.29151 7.99354 2.50759 6.90725C2.72367 5.82096 3.25702 4.82313 4.04019 4.03996C4.82336 3.25678 5.82119 2.72344 6.90748 2.50736C7.99377 2.29128 9.11975 2.40218 10.143 2.82603C11.1663 3.24988 12.0409 3.96765 12.6562 4.88856C13.2716 5.80948 13.6 6.89218 13.6 7.99975C13.6 9.48497 13.01 10.9093 11.9598 11.9596C10.9096 13.0098 9.4852 13.5998 7.99999 13.5998V13.5998ZM10.163 6.20776L9.79199 5.83676C9.76056 5.80327 9.72261 5.77659 9.68047 5.75835C9.63833 5.7401 9.5929 5.73069 9.54699 5.73069C9.50107 5.73069 9.45564 5.7401 9.4135 5.75835C9.37136 5.77659 9.33341 5.80327 9.30199 5.83676L7.99999 7.13176L6.69799 5.83676C6.66656 5.80327 6.62861 5.77659 6.58647 5.75835C6.54433 5.7401 6.4989 5.73069 6.45299 5.73069C6.40707 5.73069 6.36164 5.7401 6.3195 5.75835C6.27736 5.77659 6.23941 5.80327 6.20799 5.83676L5.83699 6.20776C5.8035 6.23918 5.77682 6.27713 5.75858 6.31927C5.74034 6.36141 5.73092 6.40684 5.73092 6.45276C5.73092 6.49867 5.74034 6.5441 5.75858 6.58624C5.77682 6.62838 5.8035 6.66633 5.83699 6.69776L7.13199 7.99975L5.83699 9.30175C5.8035 9.33318 5.77682 9.37113 5.75858 9.41327C5.74034 9.45541 5.73092 9.50084 5.73092 9.54675C5.73092 9.59267 5.74034 9.6381 5.75858 9.68024C5.77682 9.72238 5.8035 9.76033 5.83699 9.79176L6.20799 10.1628C6.23941 10.1962 6.27736 10.2229 6.3195 10.2412C6.36164 10.2594 6.40707 10.2688 6.45299 10.2688C6.4989 10.2688 6.54433 10.2594 6.58647 10.2412C6.62861 10.2229 6.66656 10.1962 6.69799 10.1628L7.99999 8.86775L9.30199 10.1628C9.33341 10.1962 9.37136 10.2229 9.4135 10.2412C9.45564 10.2594 9.50107 10.2688 9.54699 10.2688C9.5929 10.2688 9.63833 10.2594 9.68047 10.2412C9.72261 10.2229 9.76056 10.1962 9.79199 10.1628L10.163 9.79176C10.1965 9.76033 10.2232 9.72238 10.2414 9.68024C10.2596 9.6381 10.269 9.59267 10.269 9.54675C10.269 9.50084 10.2596 9.45541 10.2414 9.41327C10.2232 9.37113 10.1965 9.33318 10.163 9.30175L8.86799 7.99975L10.163 6.69776C10.1965 6.66633 10.2232 6.62838 10.2414 6.58624C10.2596 6.5441 10.269 6.49867 10.269 6.45276C10.269 6.40684 10.2596 6.36141 10.2414 6.31927C10.2232 6.27713 10.1965 6.23918 10.163 6.20776V6.20776Z" />
</svg>
