<svg viewBox="0 0 16 16" fill="none" xmlns="http://www.w3.org/2000/svg">
	<path fill="#1F2D3D" id="Combined Shape" fill-rule="evenodd" clip-rule="evenodd"
		d="M6.66668 12.6667C3.35297 12.6667 0.666679 9.98046 0.666679 6.66675C0.666679 3.35304 3.35297 0.666748 6.66668 0.666748C9.98039 0.666748 12.6667 3.35304 12.6667 6.66675C12.6667 9.98046 9.98039 12.6667 6.66668 12.6667ZM6.66666 11.3334C9.24399 11.3334 11.3333 9.24408 11.3333 6.66675C11.3333 4.08942 9.24399 2.00008 6.66666 2.00008C4.08933 2.00008 2 4.08942 2 6.66675C2 9.24408 4.08933 11.3334 6.66666 11.3334ZM15.1381 15.1382C15.3984 14.8778 15.3984 14.4557 15.1381 14.1953L12.4714 11.5287C12.2111 11.2683 11.789 11.2683 11.5286 11.5287C11.2683 11.789 11.2683 12.2111 11.5286 12.4715L14.1953 15.1382C14.4556 15.3985 14.8778 15.3985 15.1381 15.1382Z" />
</svg>
